<mxfile>
    <diagram id="BD0IHnstjnZ9T5ysEcdk" name="Page-1">
        <mxGraphModel dx="1043" dy="881" grid="1" gridSize="10" guides="1" tooltips="1" connect="1" arrows="1" fold="1" page="1" pageScale="1" pageWidth="850" pageHeight="1100" background="#283618" math="0" shadow="0">
            <root>
                <mxCell id="0"/>
                <mxCell id="1" parent="0"/>
                <mxCell id="2" value="" style="rounded=1;whiteSpace=wrap;html=1;sketch=0;strokeColor=#DDA15E;fillColor=#BC6C25;fontColor=#FEFAE0;" parent="1" vertex="1">
                    <mxGeometry x="10" y="90" width="240" height="340" as="geometry"/>
                </mxCell>
                <mxCell id="57" value="" style="edgeStyle=orthogonalEdgeStyle;rounded=0;orthogonalLoop=1;jettySize=auto;html=1;" parent="1" source="5" target="25" edge="1">
                    <mxGeometry relative="1" as="geometry"/>
                </mxCell>
                <mxCell id="5" value="" style="rounded=1;whiteSpace=wrap;html=1;sketch=0;strokeColor=#DDA15E;fillColor=#BC6C25;fontColor=#FEFAE0;" parent="1" vertex="1">
                    <mxGeometry x="307.5" y="100" width="240" height="130" as="geometry"/>
                </mxCell>
                <mxCell id="79" value="" style="edgeStyle=none;rounded=0;orthogonalLoop=1;jettySize=auto;html=1;" edge="1" parent="1" source="25">
                    <mxGeometry relative="1" as="geometry">
                        <mxPoint x="560" y="750" as="targetPoint"/>
                        <Array as="points">
                            <mxPoint x="420" y="600"/>
                        </Array>
                    </mxGeometry>
                </mxCell>
                <mxCell id="25" value="&lt;h1&gt;User as Teacher&lt;/h1&gt;&lt;div&gt;&lt;span&gt;has_many given courses&lt;/span&gt;&lt;/div&gt;&lt;div&gt;&lt;span&gt;has_many students&lt;/span&gt;&lt;/div&gt;&lt;div&gt;&lt;br&gt;&lt;/div&gt;&lt;div&gt;Attributes&lt;/div&gt;&lt;div&gt;&lt;br&gt;&lt;/div&gt;&lt;div&gt;username&lt;/div&gt;&lt;div&gt;first_name&lt;/div&gt;&lt;div&gt;last_name&lt;/div&gt;&lt;div&gt;password&lt;/div&gt;&lt;div&gt;&lt;br&gt;&lt;/div&gt;&lt;div&gt;bio&lt;/div&gt;&lt;div&gt;years_experience&lt;/div&gt;" style="text;html=1;strokeColor=none;fillColor=none;spacing=5;spacingTop=-20;whiteSpace=wrap;overflow=hidden;rounded=0;sketch=0;fontColor=#FEFAE0;align=center;" parent="1" vertex="1">
                    <mxGeometry x="20" y="100" width="215" height="310" as="geometry"/>
                </mxCell>
                <mxCell id="30" style="edgeStyle=orthogonalEdgeStyle;shape=link;rounded=1;sketch=0;orthogonalLoop=1;jettySize=auto;html=1;exitX=0.5;exitY=1;exitDx=0;exitDy=0;strokeColor=#DDA15E;fillColor=#BC6C25;fontColor=#FEFAE0;" parent="1" edge="1">
                    <mxGeometry relative="1" as="geometry">
                        <mxPoint x="392.5" y="1000" as="sourcePoint"/>
                        <mxPoint x="392.5" y="1000" as="targetPoint"/>
                    </mxGeometry>
                </mxCell>
                <mxCell id="31" value="" style="rounded=1;whiteSpace=wrap;html=1;sketch=0;strokeColor=#DDA15E;fillColor=#BC6C25;fontColor=#FEFAE0;" parent="1" vertex="1">
                    <mxGeometry x="5" y="660" width="245" height="250" as="geometry"/>
                </mxCell>
                <mxCell id="33" value="&lt;br&gt;&lt;br&gt;" style="rounded=1;whiteSpace=wrap;html=1;sketch=0;strokeColor=#DDA15E;fillColor=#BC6C25;fontColor=#FEFAE0;" parent="1" vertex="1">
                    <mxGeometry x="582.5" y="10" width="240" height="370" as="geometry"/>
                </mxCell>
                <mxCell id="34" value="&lt;h1&gt;User as Student&lt;/h1&gt;&lt;div&gt;has_many teachers&lt;/div&gt;&lt;div&gt;through:taken_courses&lt;/div&gt;&lt;div&gt;&lt;br&gt;&lt;/div&gt;&lt;div&gt;has_many reviews through&lt;/div&gt;&lt;div&gt;taken_courses&lt;/div&gt;&lt;div&gt;&lt;br&gt;&lt;/div&gt;&lt;div&gt;username&lt;/div&gt;&lt;div&gt;first_name&lt;/div&gt;&lt;div&gt;last_name&lt;/div&gt;&lt;div&gt;password&lt;/div&gt;&lt;div&gt;email&lt;/div&gt;&lt;div&gt;bio&lt;/div&gt;" style="text;html=1;strokeColor=none;fillColor=none;spacing=5;spacingTop=-20;whiteSpace=wrap;overflow=hidden;rounded=0;sketch=0;fontColor=#FEFAE0;align=center;" parent="1" vertex="1">
                    <mxGeometry x="612.5" y="50" width="180" height="350" as="geometry"/>
                </mxCell>
                <mxCell id="50" value="" style="rounded=1;whiteSpace=wrap;html=1;sketch=0;strokeColor=#DDA15E;fillColor=#BC6C25;fontColor=#FEFAE0;" parent="1" vertex="1">
                    <mxGeometry x="547.5" y="750" width="280" height="330" as="geometry"/>
                </mxCell>
                <mxCell id="8" value="&lt;h1&gt;&lt;span&gt;Course&lt;/span&gt;&lt;/h1&gt;&lt;h1&gt;&lt;span style=&quot;font-size: 12px ; font-weight: normal&quot;&gt;has_many students&lt;/span&gt;&lt;br&gt;&lt;/h1&gt;&lt;div&gt;&lt;span style=&quot;font-size: 12px ; font-weight: normal&quot;&gt;has_many reviews&lt;/span&gt;&lt;/div&gt;&lt;div&gt;belongs_to teacher&lt;/div&gt;&lt;div&gt;&lt;br&gt;&lt;/div&gt;&lt;div style=&quot;text-align: left&quot;&gt;&lt;div style=&quot;text-align: center&quot;&gt;name&lt;/div&gt;&lt;div style=&quot;text-align: center&quot;&gt;description&lt;/div&gt;&lt;div style=&quot;text-align: center&quot;&gt;level:integer&lt;/div&gt;&lt;div style=&quot;text-align: center&quot;&gt;duration:integer&lt;/div&gt;&lt;div style=&quot;text-align: center&quot;&gt;price&lt;/div&gt;&lt;div style=&quot;text-align: center&quot;&gt;datetime&lt;/div&gt;&lt;div style=&quot;text-align: center&quot;&gt;student_id&lt;/div&gt;&lt;div style=&quot;text-align: center&quot;&gt;teacher_id&lt;/div&gt;&lt;div style=&quot;text-align: center&quot;&gt;&lt;br&gt;&lt;/div&gt;&lt;div style=&quot;text-align: center&quot;&gt;&lt;br&gt;&lt;/div&gt;&lt;div style=&quot;text-align: center&quot;&gt;&lt;br&gt;&lt;/div&gt;&lt;/div&gt;" style="text;html=1;strokeColor=none;fillColor=none;spacing=5;spacingTop=-20;whiteSpace=wrap;overflow=hidden;rounded=0;sketch=0;fontColor=#FEFAE0;align=center;" parent="1" vertex="1">
                    <mxGeometry x="577.5" y="780" width="220" height="260" as="geometry"/>
                </mxCell>
                <mxCell id="51" style="edgeStyle=orthogonalEdgeStyle;rounded=0;orthogonalLoop=1;jettySize=auto;html=1;exitX=0.5;exitY=1;exitDx=0;exitDy=0;" parent="1" source="5" target="5" edge="1">
                    <mxGeometry relative="1" as="geometry"/>
                </mxCell>
                <mxCell id="52" value="&lt;h1&gt;StudentTeachers&lt;/h1&gt;&lt;div&gt;references:student&lt;/div&gt;&lt;div&gt;references:teacher&lt;/div&gt;&lt;div&gt;&lt;br&gt;&lt;/div&gt;&lt;div style=&quot;text-align: left&quot;&gt;&lt;div style=&quot;text-align: center&quot;&gt;&lt;br&gt;&lt;/div&gt;&lt;div style=&quot;text-align: center&quot;&gt;&lt;br&gt;&lt;/div&gt;&lt;div style=&quot;text-align: center&quot;&gt;&lt;br&gt;&lt;/div&gt;&lt;div style=&quot;text-align: center&quot;&gt;&lt;br&gt;&lt;/div&gt;&lt;div style=&quot;text-align: center&quot;&gt;&lt;br&gt;&lt;/div&gt;&lt;/div&gt;" style="text;html=1;strokeColor=none;fillColor=none;spacing=5;spacingTop=-20;whiteSpace=wrap;overflow=hidden;rounded=0;sketch=0;fontColor=#FEFAE0;align=center;" parent="1" vertex="1">
                    <mxGeometry x="317.5" y="120" width="220" height="170" as="geometry"/>
                </mxCell>
                <mxCell id="53" style="edgeStyle=orthogonalEdgeStyle;rounded=0;orthogonalLoop=1;jettySize=auto;html=1;exitX=0.5;exitY=1;exitDx=0;exitDy=0;" parent="1" source="5" target="5" edge="1">
                    <mxGeometry relative="1" as="geometry"/>
                </mxCell>
                <mxCell id="58" value="" style="edgeStyle=orthogonalEdgeStyle;rounded=0;orthogonalLoop=1;jettySize=auto;html=1;" parent="1" source="5" target="34" edge="1">
                    <mxGeometry relative="1" as="geometry"/>
                </mxCell>
                <mxCell id="75" value="" style="edgeStyle=orthogonalEdgeStyle;rounded=0;orthogonalLoop=1;jettySize=auto;html=1;" edge="1" parent="1" source="49" target="50">
                    <mxGeometry relative="1" as="geometry">
                        <mxPoint x="320" y="784.9999999999998" as="targetPoint"/>
                    </mxGeometry>
                </mxCell>
                <mxCell id="81" value="" style="edgeStyle=none;rounded=0;orthogonalLoop=1;jettySize=auto;html=1;" edge="1" parent="1" source="49" target="33">
                    <mxGeometry relative="1" as="geometry">
                        <mxPoint x="130" y="589.9999999999998" as="targetPoint"/>
                    </mxGeometry>
                </mxCell>
                <mxCell id="49" value="&lt;h1&gt;Review&lt;/h1&gt;&lt;div&gt;belongs to student&lt;/div&gt;&lt;div&gt;&lt;br&gt;&lt;/div&gt;&lt;div&gt;belongs to course&lt;/div&gt;&lt;div&gt;&lt;br&gt;&lt;/div&gt;&lt;div&gt;student_id&lt;/div&gt;&lt;div&gt;teacher_id&lt;/div&gt;&lt;div&gt;course_id&lt;/div&gt;&lt;div&gt;rating&lt;/div&gt;&lt;div&gt;content&lt;/div&gt;&lt;div&gt;&lt;br&gt;&lt;/div&gt;&lt;div style=&quot;text-align: left&quot;&gt;&lt;div style=&quot;text-align: center&quot;&gt;&lt;br&gt;&lt;/div&gt;&lt;div style=&quot;text-align: center&quot;&gt;&lt;br&gt;&lt;/div&gt;&lt;/div&gt;" style="text;html=1;strokeColor=none;fillColor=none;spacing=5;spacingTop=-20;whiteSpace=wrap;overflow=hidden;rounded=0;sketch=0;fontColor=#FEFAE0;align=center;" parent="1" vertex="1">
                    <mxGeometry x="20" y="670" width="220" height="230" as="geometry"/>
                </mxCell>
                <mxCell id="65" value="" style="rounded=1;whiteSpace=wrap;html=1;sketch=0;strokeColor=#DDA15E;fillColor=#BC6C25;fontColor=#FEFAE0;" vertex="1" parent="1">
                    <mxGeometry x="537.5" y="500" width="290" height="170" as="geometry"/>
                </mxCell>
                <mxCell id="70" value="" style="edgeStyle=orthogonalEdgeStyle;rounded=0;orthogonalLoop=1;jettySize=auto;html=1;" edge="1" parent="1" source="67" target="34">
                    <mxGeometry relative="1" as="geometry"/>
                </mxCell>
                <mxCell id="71" value="" style="edgeStyle=orthogonalEdgeStyle;rounded=0;orthogonalLoop=1;jettySize=auto;html=1;" edge="1" parent="1" source="67" target="8">
                    <mxGeometry relative="1" as="geometry"/>
                </mxCell>
                <mxCell id="67" value="&lt;h1&gt;StudentCourses&lt;/h1&gt;&lt;div&gt;references:student&lt;/div&gt;&lt;div&gt;references:course&lt;/div&gt;&lt;div style=&quot;text-align: left&quot;&gt;&lt;div style=&quot;text-align: center&quot;&gt;&lt;br&gt;&lt;/div&gt;&lt;div style=&quot;text-align: center&quot;&gt;&lt;br&gt;&lt;/div&gt;&lt;div style=&quot;text-align: center&quot;&gt;&lt;br&gt;&lt;/div&gt;&lt;/div&gt;" style="text;html=1;strokeColor=none;fillColor=none;spacing=5;spacingTop=-20;whiteSpace=wrap;overflow=hidden;rounded=0;sketch=0;fontColor=#FEFAE0;align=center;" vertex="1" parent="1">
                    <mxGeometry x="572.5" y="540" width="220" height="90" as="geometry"/>
                </mxCell>
                <mxCell id="72" style="edgeStyle=orthogonalEdgeStyle;rounded=0;orthogonalLoop=1;jettySize=auto;html=1;exitX=0.5;exitY=1;exitDx=0;exitDy=0;" edge="1" parent="1" source="34" target="34">
                    <mxGeometry relative="1" as="geometry"/>
                </mxCell>
                <mxCell id="73" style="edgeStyle=orthogonalEdgeStyle;rounded=0;orthogonalLoop=1;jettySize=auto;html=1;exitX=0.5;exitY=1;exitDx=0;exitDy=0;" edge="1" parent="1" source="67" target="67">
                    <mxGeometry relative="1" as="geometry"/>
                </mxCell>
            </root>
        </mxGraphModel>
    </diagram>
</mxfile>